<svg id="visual" viewBox="0 0 900 200" width="900" height="200" xmlns="http://www.w3.org/2000/svg" xmlns:xlink="http://www.w3.org/1999/xlink" version="1.1"><path d="M0 41L13.7 39C27.3 37 54.7 33 82 30.3C109.3 27.7 136.7 26.3 163.8 27.7C191 29 218 33 245.2 37.3C272.3 41.7 299.7 46.3 327 44.7C354.3 43 381.7 35 409 33.3C436.3 31.7 463.7 36.3 491 36C518.3 35.7 545.7 30.3 573 26.7C600.3 23 627.7 21 654.8 25.7C682 30.3 709 41.7 736.2 42.7C763.3 43.7 790.7 34.3 818 31.3C845.3 28.3 872.7 31.7 886.3 33.3L900 35L900 0L886.3 0C872.7 0 845.3 0 818 0C790.7 0 763.3 0 736.2 0C709 0 682 0 654.8 0C627.7 0 600.3 0 573 0C545.7 0 518.3 0 491 0C463.7 0 436.3 0 409 0C381.7 0 354.3 0 327 0C299.7 0 272.3 0 245.2 0C218 0 191 0 163.8 0C136.7 0 109.3 0 82 0C54.7 0 27.3 0 13.7 0L0 0Z" fill="#ffffff"></path><path d="M0 105L13.7 98C27.3 91 54.7 77 82 73.3C109.3 69.7 136.7 76.3 163.8 87.7C191 99 218 115 245.2 114.7C272.3 114.3 299.7 97.7 327 90.3C354.3 83 381.7 85 409 83.7C436.3 82.3 463.7 77.7 491 73C518.3 68.3 545.7 63.7 573 67.7C600.3 71.7 627.7 84.3 654.8 95C682 105.7 709 114.3 736.2 114.3C763.3 114.3 790.7 105.7 818 100.3C845.3 95 872.7 93 886.3 92L900 91L900 33L886.3 31.3C872.7 29.7 845.3 26.3 818 29.3C790.7 32.3 763.3 41.7 736.2 40.7C709 39.7 682 28.3 654.8 23.7C627.7 19 600.3 21 573 24.7C545.7 28.3 518.3 33.7 491 34C463.7 34.3 436.3 29.7 409 31.3C381.7 33 354.3 41 327 42.7C299.7 44.3 272.3 39.7 245.2 35.3C218 31 191 27 163.8 25.7C136.7 24.3 109.3 25.7 82 28.3C54.7 31 27.3 35 13.7 37L0 39Z" fill="#bbc1bb"></path><path d="M0 133L13.7 127.3C27.3 121.7 54.7 110.3 82 106.3C109.3 102.3 136.7 105.7 163.8 113.3C191 121 218 133 245.2 132C272.3 131 299.7 117 327 112.3C354.3 107.7 381.7 112.3 409 113.3C436.3 114.3 463.7 111.7 491 108.3C518.3 105 545.7 101 573 105C600.3 109 627.7 121 654.8 130.7C682 140.3 709 147.7 736.2 145.3C763.3 143 790.7 131 818 125.7C845.3 120.3 872.7 121.7 886.3 122.3L900 123L900 89L886.3 90C872.7 91 845.3 93 818 98.3C790.7 103.7 763.3 112.3 736.2 112.3C709 112.3 682 103.7 654.8 93C627.7 82.3 600.3 69.7 573 65.7C545.7 61.7 518.3 66.3 491 71C463.7 75.7 436.3 80.3 409 81.7C381.7 83 354.3 81 327 88.3C299.7 95.7 272.3 112.3 245.2 112.7C218 113 191 97 163.8 85.7C136.7 74.3 109.3 67.7 82 71.3C54.7 75 27.3 89 13.7 96L0 103Z" fill="#7b867c"></path><path d="M0 159L13.7 153C27.3 147 54.7 135 82 131.3C109.3 127.7 136.7 132.3 163.8 139.7C191 147 218 157 245.2 155.3C272.3 153.7 299.7 140.3 327 136.7C354.3 133 381.7 139 409 138.7C436.3 138.3 463.7 131.7 491 126.7C518.3 121.7 545.7 118.3 573 122C600.3 125.7 627.7 136.3 654.8 145.7C682 155 709 163 736.2 163C763.3 163 790.7 155 818 152.3C845.3 149.7 872.7 152.3 886.3 153.7L900 155L900 121L886.3 120.3C872.7 119.7 845.3 118.3 818 123.7C790.7 129 763.3 141 736.2 143.3C709 145.7 682 138.3 654.8 128.7C627.7 119 600.3 107 573 103C545.7 99 518.3 103 491 106.3C463.7 109.7 436.3 112.3 409 111.3C381.7 110.3 354.3 105.7 327 110.3C299.7 115 272.3 129 245.2 130C218 131 191 119 163.8 111.3C136.7 103.7 109.3 100.3 82 104.3C54.7 108.3 27.3 119.7 13.7 125.3L0 131Z" fill="#405042"></path><path d="M0 201L13.7 201C27.3 201 54.7 201 82 201C109.3 201 136.7 201 163.8 201C191 201 218 201 245.2 201C272.3 201 299.7 201 327 201C354.3 201 381.7 201 409 201C436.3 201 463.7 201 491 201C518.3 201 545.7 201 573 201C600.3 201 627.7 201 654.8 201C682 201 709 201 736.2 201C763.3 201 790.7 201 818 201C845.3 201 872.7 201 886.3 201L900 201L900 153L886.3 151.7C872.7 150.3 845.3 147.7 818 150.3C790.7 153 763.3 161 736.2 161C709 161 682 153 654.8 143.7C627.7 134.3 600.3 123.7 573 120C545.7 116.3 518.3 119.7 491 124.7C463.7 129.7 436.3 136.3 409 136.7C381.7 137 354.3 131 327 134.7C299.7 138.3 272.3 151.7 245.2 153.3C218 155 191 145 163.8 137.7C136.7 130.3 109.3 125.7 82 129.3C54.7 133 27.3 145 13.7 151L0 157Z" fill="#0c1f0f"></path></svg>