<svg id="visual" viewBox="0 0 1024 100" width="1024" height="100" xmlns="http://www.w3.org/2000/svg" xmlns:xlink="http://www.w3.org/1999/xlink" version="1.1"><path d="M0 12L15.5 11C31 10 62 8 93 10.5C124 13 155 20 186 23.5C217 27 248 27 279 24.3C310 21.7 341 16.3 372 18C403 19.7 434 28.3 465.2 31.2C496.3 34 527.7 31 558.8 26.8C590 22.7 621 17.3 652 16.2C683 15 714 18 745 20.5C776 23 807 25 838 28.5C869 32 900 37 931 37.3C962 37.7 993 33.3 1008.5 31.2L1024 29L1024 0L1008.5 0C993 0 962 0 931 0C900 0 869 0 838 0C807 0 776 0 745 0C714 0 683 0 652 0C621 0 590 0 558.8 0C527.7 0 496.3 0 465.2 0C434 0 403 0 372 0C341 0 310 0 279 0C248 0 217 0 186 0C155 0 124 0 93 0C62 0 31 0 15.5 0L0 0Z" fill="#0c1f0f"></path><path d="M0 27L15.5 23.7C31 20.3 62 13.7 93 14.5C124 15.3 155 23.7 186 29.3C217 35 248 38 279 34.8C310 31.7 341 22.3 372 23.7C403 25 434 37 465.2 42.2C496.3 47.3 527.7 45.7 558.8 42C590 38.3 621 32.7 652 31.5C683 30.3 714 33.7 745 34.7C776 35.7 807 34.3 838 36.7C869 39 900 45 931 46.3C962 47.7 993 44.3 1008.5 42.7L1024 41L1024 27L1008.5 29.2C993 31.3 962 35.7 931 35.3C900 35 869 30 838 26.5C807 23 776 21 745 18.5C714 16 683 13 652 14.2C621 15.3 590 20.7 558.8 24.8C527.7 29 496.3 32 465.2 29.2C434 26.3 403 17.7 372 16C341 14.3 310 19.7 279 22.3C248 25 217 25 186 21.5C155 18 124 11 93 8.5C62 6 31 8 15.5 9L0 10Z" fill="#2e3f31"></path><path d="M0 42L15.5 38.7C31 35.3 62 28.7 93 29C124 29.3 155 36.7 186 42.5C217 48.3 248 52.7 279 51C310 49.3 341 41.7 372 42C403 42.3 434 50.7 465.2 53.5C496.3 56.3 527.7 53.7 558.8 51.3C590 49 621 47 652 47.2C683 47.3 714 49.7 745 49.8C776 50 807 48 838 48.8C869 49.7 900 53.3 931 56C962 58.7 993 60.3 1008.5 61.2L1024 62L1024 39L1008.5 40.7C993 42.3 962 45.7 931 44.3C900 43 869 37 838 34.7C807 32.3 776 33.7 745 32.7C714 31.7 683 28.3 652 29.5C621 30.7 590 36.3 558.8 40C527.7 43.7 496.3 45.3 465.2 40.2C434 35 403 23 372 21.7C341 20.3 310 29.7 279 32.8C248 36 217 33 186 27.3C155 21.7 124 13.3 93 12.5C62 11.7 31 18.3 15.5 21.7L0 25Z" fill="#536155"></path><path d="M0 47L15.5 43.3C31 39.7 62 32.3 93 33.7C124 35 155 45 186 51.2C217 57.3 248 59.7 279 58.7C310 57.7 341 53.3 372 53.5C403 53.7 434 58.3 465.2 60.7C496.3 63 527.7 63 558.8 62.2C590 61.3 621 59.7 652 59.5C683 59.3 714 60.7 745 61.2C776 61.7 807 61.3 838 61.8C869 62.3 900 63.7 931 63.8C962 64 993 63 1008.5 62.5L1024 62L1024 60L1008.5 59.2C993 58.3 962 56.7 931 54C900 51.3 869 47.7 838 46.8C807 46 776 48 745 47.8C714 47.7 683 45.3 652 45.2C621 45 590 47 558.8 49.3C527.7 51.7 496.3 54.3 465.2 51.5C434 48.7 403 40.3 372 40C341 39.7 310 47.3 279 49C248 50.7 217 46.3 186 40.5C155 34.7 124 27.3 93 27C62 26.7 31 33.3 15.5 36.7L0 40Z" fill="#7b867c"></path><path d="M0 82L15.5 78.7C31 75.3 62 68.7 93 67.7C124 66.7 155 71.3 186 75.2C217 79 248 82 279 83.3C310 84.7 341 84.3 372 84.5C403 84.7 434 85.3 465.2 82.2C496.3 79 527.7 72 558.8 71.7C590 71.3 621 77.7 652 78.7C683 79.7 714 75.3 745 73.7C776 72 807 73 838 73.2C869 73.3 900 72.7 931 72.3C962 72 993 72 1008.5 72L1024 72L1024 60L1008.5 60.5C993 61 962 62 931 61.8C900 61.7 869 60.3 838 59.8C807 59.3 776 59.7 745 59.2C714 58.7 683 57.3 652 57.5C621 57.7 590 59.3 558.8 60.2C527.7 61 496.3 61 465.2 58.7C434 56.3 403 51.7 372 51.5C341 51.3 310 55.7 279 56.7C248 57.7 217 55.3 186 49.2C155 43 124 33 93 31.7C62 30.3 31 37.7 15.5 41.3L0 45Z" fill="#a5ada6"></path><path d="M0 101L15.5 97.8C31 94.7 62 88.3 93 87.8C124 87.3 155 92.7 186 95.5C217 98.3 248 98.7 279 96.8C310 95 341 91 372 90.7C403 90.3 434 93.7 465.2 93.7C496.3 93.7 527.7 90.3 558.8 90.7C590 91 621 95 652 95.3C683 95.7 714 92.3 745 91.3C776 90.3 807 91.7 838 91.3C869 91 900 89 931 87.3C962 85.7 993 84.3 1008.5 83.7L1024 83L1024 70L1008.5 70C993 70 962 70 931 70.3C900 70.7 869 71.3 838 71.2C807 71 776 70 745 71.7C714 73.3 683 77.7 652 76.7C621 75.7 590 69.3 558.8 69.7C527.7 70 496.3 77 465.2 80.2C434 83.3 403 82.7 372 82.5C341 82.3 310 82.7 279 81.3C248 80 217 77 186 73.2C155 69.3 124 64.7 93 65.7C62 66.7 31 73.3 15.5 76.7L0 80Z" fill="#d1d5d1"></path><path d="M0 101L15.5 101C31 101 62 101 93 101C124 101 155 101 186 101C217 101 248 101 279 101C310 101 341 101 372 101C403 101 434 101 465.2 101C496.3 101 527.7 101 558.8 101C590 101 621 101 652 101C683 101 714 101 745 101C776 101 807 101 838 101C869 101 900 101 931 101C962 101 993 101 1008.5 101L1024 101L1024 81L1008.5 81.7C993 82.3 962 83.7 931 85.3C900 87 869 89 838 89.3C807 89.7 776 88.3 745 89.3C714 90.3 683 93.7 652 93.3C621 93 590 89 558.8 88.7C527.7 88.3 496.3 91.7 465.2 91.7C434 91.7 403 88.3 372 88.7C341 89 310 93 279 94.8C248 96.7 217 96.3 186 93.5C155 90.7 124 85.3 93 85.8C62 86.3 31 92.7 15.5 95.8L0 99Z" fill="#ffffff"></path></svg>